<svg xmlns="http://www.w3.org/2000/svg" viewBox="0 0 760 370" font-family="'Noto Sans KR','Apple SD Gothic Neo',sans-serif">
  <rect width="760" height="370" fill="#faf9f5"/>
  <defs>
    <marker id="arrow" markerWidth="12" markerHeight="10" refX="10" refY="5" orient="auto"><path d="M0 0 12 5 0 10Z" fill="#1b365d"/></marker>
    <pattern id="pixels" width="28" height="28" patternUnits="userSpaceOnUse"><rect width="28" height="28" fill="#f5f4ed" stroke="#8fa7bf"/></pattern>
  </defs>
  <g fill="none" stroke="#1b365d" stroke-width="5" marker-end="url(#arrow)">
    <path d="M238 104H337"/><path d="M238 258H337"/>
  </g>
  <g stroke="#1b365d" stroke-width="3">
    <rect x="28" y="46" width="210" height="116" rx="12" fill="#eef2f7"/>
    <rect x="28" y="200" width="210" height="116" rx="12" fill="url(#pixels)"/>
    <rect x="337" y="46" width="390" height="116" rx="12" fill="#f5f4ed"/>
    <rect x="337" y="200" width="390" height="116" rx="12" fill="#f5f4ed"/>
  </g>
  <g stroke="none"><rect x="58" y="228" width="56" height="56" fill="#2d5a8a"/><rect x="114" y="256" width="56" height="56" fill="#b5c8dc"/><rect x="170" y="228" width="40" height="28" fill="#1b365d"/></g>
  <g fill="#1b365d" font-weight="600" text-anchor="middle">
    <text x="133" y="116" font-family="'Noto Serif KR',serif" font-size="42">고양이</text>
    <text x="532" y="92" font-size="22">토큰 번호</text><text x="532" y="132" font-family="'JetBrains Mono',monospace" font-size="29">[15, 42, 8]</text>
    <text x="532" y="226" font-size="22">픽셀값 행렬</text><text x="532" y="265" font-family="'JetBrains Mono',monospace" font-size="24">[0.1  0.8  0.4]</text><text x="532" y="296" font-family="'JetBrains Mono',monospace" font-size="24">[0.0  0.6  0.9]</text>
    <text x="380" y="354" font-size="23">표현에 남긴 정보만 계산할 수 있다</text>
  </g>
</svg>
